<svg class="hidden" width="0" height="0" style="display:none">

  <symbol id="small-search" viewBox="0 0 18.42 17.92">
    <title>Small Search Icon</title>
    <path d="M18.42,16.51,12.81,10.9a7,7,0,1,0-1.34,1.48L17,17.92ZM7,12a5,5,0,1,1,3.54-1.46A5,5,0,0,1,7,12Z" fill="#859096"/>
  </symbol>

  <symbol id="small-arrow" viewBox="0 0 11.31 7.07">
    <title>Small Down Arrow Icon</title>
    <polygon points="5.66 4.24 1.41 0 0 1.41 4.24 5.66 5.66 7.07 7.07 5.66 11.31 1.41 9.9 0 5.66 4.24"/>
  </symbol>

  <symbol id="play-btn-icon" viewBox="0 0 95.83 100">
    <title>Play Button SVG Icon</title>
    <path d="M57.32,49.66l-11.78-7.5A1,1,0,0,0,44,43V58a1,1,0,0,0,.52.88A1,1,0,0,0,45,59a1,1,0,0,0,.54-.16l11.78-7.5a1,1,0,0,0,0-1.68Z" fill="#545a5d"/>
    <path d="M50,98A48,48,0,1,1,93.62,30h2.21a50,50,0,1,0,0,40H93.62A48.05,48.05,0,0,1,50,98Z" fill="#8cc41d"/>
  </symbol>

  <symbol id="small-tick" viewBox="0 0 30 30">
    <title>Small Tick SVG Icon</title>
    <path d="M29,0c.16.09.32.18.47.28a1.05,1.05,0,0,1,.44,1.46A5.73,5.73,0,0,1,29,2.88c-2.17,2.34-4.47,4.57-6.52,7A66.31,66.31,0,0,0,12.15,27.7c-.2.49-.38,1-.62,1.46a7.08,7.08,0,0,1-.63.84h-.57a7.12,7.12,0,0,1-.69-.87,54.13,54.13,0,0,0-6.55-9.79A30.4,30.4,0,0,0,.52,16.71a1.49,1.49,0,0,1,.7-2.59,5.29,5.29,0,0,1,2.38.19c1.9.72,3.75,1.59,5.6,2.44.45.22.69.22,1-.18A129.44,129.44,0,0,1,21.62,4.32c.71-.66,1.44-1.29,2.19-1.9A12.31,12.31,0,0,1,27.93,0Z" fill="#8cd600"/>
  </symbol>

  <symbol id="facebook-icon" viewBox="0 0 430.113 430.114">
    <title>Facebook Icon</title>
    <path d="M158.081,83.3c0,10.839,0,59.218,0,59.218h-43.385v72.412h43.385v215.183h89.122V214.936h59.805   c0,0,5.601-34.721,8.316-72.685c-7.784,0-67.784,0-67.784,0s0-42.127,0-49.511c0-7.4,9.717-17.354,19.321-17.354   c9.586,0,29.818,0,48.557,0c0-9.859,0-43.924,0-75.385c-25.016,0-53.476,0-66.021,0C155.878-0.004,158.081,72.48,158.081,83.3z" fill="#859096"/>
  </symbol>

  <symbol id="twitter-icon" viewBox="0 0 612 612">
    <title>Twitter Icon</title>
    <path d="M612,116.258c-22.525,9.981-46.694,16.75-72.088,19.772c25.929-15.527,45.777-40.155,55.184-69.411    c-24.322,14.379-51.169,24.82-79.775,30.48c-22.907-24.437-55.49-39.658-91.63-39.658c-69.334,0-125.551,56.217-125.551,125.513    c0,9.828,1.109,19.427,3.251,28.606C197.065,206.32,104.556,156.337,42.641,80.386c-10.823,18.51-16.98,40.078-16.98,63.101    c0,43.559,22.181,81.993,55.835,104.479c-20.575-0.688-39.926-6.348-56.867-15.756v1.568c0,60.806,43.291,111.554,100.693,123.104    c-10.517,2.83-21.607,4.398-33.08,4.398c-8.107,0-15.947-0.803-23.634-2.333c15.985,49.907,62.336,86.199,117.253,87.194    c-42.947,33.654-97.099,53.655-155.916,53.655c-10.134,0-20.116-0.612-29.944-1.721c55.567,35.681,121.536,56.485,192.438,56.485    c230.948,0,357.188-191.291,357.188-357.188l-0.421-16.253C573.872,163.526,595.211,141.422,612,116.258z" fill="#859096"/>
  </symbol>

  <symbol id="youtube-icon" viewBox="0 0 310 310">
    <title>YouTube Icon</title>
    <path d="M297.917,64.645c-11.19-13.302-31.85-18.728-71.306-18.728H83.386c-40.359,0-61.369,5.776-72.517,19.938   C0,79.663,0,100.008,0,128.166v53.669c0,54.551,12.896,82.248,83.386,82.248h143.226c34.216,0,53.176-4.788,65.442-16.527   C304.633,235.518,310,215.863,310,181.835v-53.669C310,98.471,309.159,78.006,297.917,64.645z M199.021,162.41l-65.038,33.991   c-1.454,0.76-3.044,1.137-4.632,1.137c-1.798,0-3.592-0.484-5.181-1.446c-2.992-1.813-4.819-5.056-4.819-8.554v-67.764   c0-3.492,1.822-6.732,4.808-8.546c2.987-1.814,6.702-1.938,9.801-0.328l65.038,33.772c3.309,1.718,5.387,5.134,5.392,8.861   C204.394,157.263,202.325,160.684,199.021,162.41z" fill="#859096"/>
  </symbol>

  <symbol id="linkedin-icon" viewBox="0 0 430.117 430.117">
    <title>LinkedIn Icon</title>
    <path d="M430.117,261.543V420.56h-92.188V272.193c0-37.271-13.334-62.707-46.703-62.707   c-25.473,0-40.632,17.142-47.301,33.724c-2.432,5.928-3.058,14.179-3.058,22.477V420.56h-92.219c0,0,1.242-251.285,0-277.32h92.21   v39.309c-0.187,0.294-0.43,0.611-0.606,0.896h0.606v-0.896c12.251-18.869,34.13-45.824,83.102-45.824   C384.633,136.724,430.117,176.361,430.117,261.543z M52.183,9.558C20.635,9.558,0,30.251,0,57.463   c0,26.619,20.038,47.94,50.959,47.94h0.616c32.159,0,52.159-21.317,52.159-47.94C103.128,30.251,83.734,9.558,52.183,9.558z    M5.477,420.56h92.184v-277.32H5.477V420.56z" fill="#859096"/>
  </symbol>

  <symbol id="news-icon" viewBox="0 0 20.9 20.9">
    <title>News Icon</title>
  	<path d="M20.4,17.9v-6.4h-4v-11h-16v17.4c0,0.9,0.3,1.6,0.8,2.1c0.6,0.5,1.3,0.6,1.6,0.6c0.1,0,0.1,0,0.1,0l15.1,0
  	c0.8,0,1.4-0.3,1.9-0.8C20.5,18.9,20.4,17.9,20.4,17.9z M15.5,12v0.5v7l-12.6,0c0,0-0.6,0-1-0.3c-0.3-0.3-0.5-0.7-0.5-1.3V1.5h14
  	V12z M19.1,19c-0.2,0.3-0.6,0.4-1.1,0.5l-1.5,0v-7h3l0,5.4C19.4,17.9,19.5,18.6,19.1,19z" fill="#768187"/>
  	<path d="M8.5,3.5h-5v6h5V3.5z M7.5,8.5h-3v-4h3V8.5z" fill="#768187"/>
  	<rect x="10.5" y="8.5" width="3" height="1" fill="#768187"/>
  	<rect x="10.5" y="5.5" width="3" height="1" fill="#768187"/>
  	<rect x="10.5" y="14.5" width="3" height="1" fill="#768187"/>
  	<rect x="10.5" y="16.5" width="3" height="1" fill="#768187"/>
  	<rect x="3.5" y="16.5" width="4.9" height="1" fill="#768187"/>
  	<rect x="3.5" y="14.5" width="4.9" height="1" fill="#768187"/>
  	<rect x="10.5" y="3.5" width="3" height="1" fill="#768187"/>
  	<rect x="3.5" y="11.5" width="9.9" height="1" fill="#768187"/>
  </symbol>

  <symbol id="ignition-logo" xmlns="http://www.w3.org/2000/svg" viewBox="0 0 93.2 25.6">
    <title>Ignition UX SVG Logo</title>
    <path d="M90.7,4.6A5.47,5.47,0,0,0,93.1,0h-2a3.65,3.65,0,0,1-3.6,3.6A3.65,3.65,0,0,1,83.9,0h-2a5.72,5.72,0,0,0,2.4,4.6A5.92,5.92,0,0,0,82,9.2h2a3.6,3.6,0,0,1,7.2,0h2A5.81,5.81,0,0,0,90.7,4.6Z" fill="#818b91"/>
    <path d="M78.4,5.6A5.72,5.72,0,0,1,72.8,0h2a3.65,3.65,0,0,0,3.6,3.6A3.65,3.65,0,0,0,82,0h2A5.79,5.79,0,0,1,78.4,5.6Z" fill="#818b91"/>
    <path d="M2.6,5.7A1.26,1.26,0,0,1,1.3,7,1.26,1.26,0,0,1,0,5.7,1.32,1.32,0,0,1,1.3,4.4C2.1,4.3,2.6,4.9,2.6,5.7ZM.3,20.6V8.9H2.4V20.5H.3Z" fill="#818b91"/>
    <path d="M15.4,8.9c0,.8-.1,1.8-.1,3.2v6.8c0,2.7-.5,4.3-1.7,5.3a6,6,0,0,1-4.2,1.4,7.09,7.09,0,0,1-3.9-1L6.1,23a6.54,6.54,0,0,0,3.4.9c2.2,0,3.8-1.1,3.8-4.1V18.5h0a4,4,0,0,1-3.7,1.9c-2.9,0-5-2.5-5-5.7,0-3.9,2.6-6.2,5.2-6.2a3.93,3.93,0,0,1,3.6,2h0l.1-1.8h1.9Zm-2.2,4.6a3,3,0,0,0-3.1-3.2c-2,0-3.5,1.7-3.5,4.4,0,2.3,1.2,4.2,3.4,4.2a3,3,0,0,0,2.9-2.2,5.16,5.16,0,0,0,.2-1.1V13.5Z" fill="#818b91"/>
    <path d="M17.9,12.1c0-1.2,0-2.2-.1-3.2h1.9l.1,1.9h0a4.28,4.28,0,0,1,3.8-2.2c1.6,0,4.1,1,4.1,5v6.9H25.6V13.8c0-1.9-.7-3.4-2.7-3.4a2.91,2.91,0,0,0-2.8,2.2,3.08,3.08,0,0,0-.1,1v7H17.9Z" fill="#818b91"/>
    <path d="M32.6,5.7a1.3,1.3,0,0,1-2.6,0,1.32,1.32,0,0,1,1.3-1.3C32.1,4.3,32.6,4.9,32.6,5.7ZM30.3,20.6V8.9h2.1V20.5H30.3Z" fill="#818b91"/>
    <path d="M38.4,5.6V8.9h3v1.6h-3v6.3c0,1.4.4,2.3,1.6,2.3.6,0,1-.1,1.2-.1l.1,1.6a4.7,4.7,0,0,1-1.9.3,2.87,2.87,0,0,1-2.3-.9,4.31,4.31,0,0,1-.8-3V10.7H34.5V8.9h1.8V6.1Z" fill="#818b91"/>
    <path d="M46.2,5.7A1.26,1.26,0,0,1,44.9,7a1.3,1.3,0,1,1,0-2.6C45.7,4.3,46.2,4.9,46.2,5.7ZM43.9,20.6V8.9H46V20.5H43.9Z" fill="#818b91"/>
    <path d="M59.5,14.6c0,4.3-3,6.2-5.8,6.2-3.2,0-5.6-2.3-5.6-6,0-3.9,2.5-6.2,5.8-6.2S59.5,11.1,59.5,14.6Zm-9.2.2c0,2.5,1.5,4.5,3.5,4.5s3.5-1.9,3.5-4.5c0-2-1-4.5-3.5-4.5S50.3,12.6,50.3,14.8Z" fill="#818b91"/>
    <path d="M61.7,12.1c0-1.2,0-2.2-.1-3.2h1.9l.1,1.9h0a4.28,4.28,0,0,1,3.8-2.2c1.6,0,4.1,1,4.1,5v6.9H69.4V13.8c0-1.9-.7-3.4-2.7-3.4a2.91,2.91,0,0,0-2.8,2.2,3.08,3.08,0,0,0-.1,1v7H61.7Z" fill="#818b91"/>
  </symbol>

</svg>
