<svg xmlns="http://www.w3.org/2000/svg" width="950" height="1338" viewBox="0 0 950 1338">
  <metadata><?xpacket begin="﻿" id="W5M0MpCehiHzreSzNTczkc9d"?>
<x:xmpmeta xmlns:x="adobe:ns:meta/" x:xmptk="Adobe XMP Core 5.6-c138 79.159824, 2016/09/14-01:09:01        ">
   <rdf:RDF xmlns:rdf="http://www.w3.org/1999/02/22-rdf-syntax-ns#">
      <rdf:Description rdf:about=""/>
   </rdf:RDF>
</x:xmpmeta>
                                                                                                    
                                                                                                    
                                                                                                    
                                                                                                    
                                                                                                    
                                                                                                    
                                                                                                    
                                                                                                    
                                                                                                    
                                                                                                    
                                                                                                    
                                                                                                    
                                                                                                    
                                                                                                    
                                                                                                    
                                                                                                    
                                                                                                    
                                                                                                    
                                                                                                    
                                                                                                    
                           
<?xpacket end="w"?></metadata>
<defs>
    <style>
      .cls-1 {
        fill: #fafbfb;
        fill-rule: evenodd;
      }
    </style>
  </defs>
  <path id="bg_shape" data-name="bg shape" class="cls-1" d="M864.282,995.07a670.67,670.67,0,0,0,.008-656.124C781.326,329.424,479.016,296.4,279,296.4s-502.326,33.026-585.29,42.548a670.67,670.67,0,0,0,.008,656.124c82.975,9.51,385.273,42.53,585.282,42.53S781.307,1004.58,864.282,995.07Zm-62.5-748.519a675.155,675.155,0,0,0-69.893-74.593C602.147,159.107,416.4,143.511,279,143.511s-323.147,15.6-452.889,28.447a675.155,675.155,0,0,0-69.893,74.593c127.218-13.528,356.089-35.09,522.782-35.09S674.564,233.023,801.782,246.551ZM593.038,74.016a671.058,671.058,0,0,0-628.076,0C69.723,65.531,184.384,58.574,279,58.574S488.277,65.531,593.038,74.016ZM801.78,1087.45c-127.216,13.53-356.087,35.09-522.78,35.09s-395.564-21.56-522.78-35.09a674.908,674.908,0,0,0,69.9,74.6C-44.138,1174.9,141.6,1190.49,279,1190.49s323.138-15.59,452.881-28.44A674.908,674.908,0,0,0,801.78,1087.45ZM-35.033,1259.99a671.082,671.082,0,0,0,628.066,0c-104.759,8.48-219.419,15.44-314.033,15.44S69.726,1268.47-35.033,1259.99Z"/>
</svg>
