<svg class="main-logo" id="main-logo" xmlns="http://www.w3.org/2000/svg" viewBox="0 0 414.85 79" role="img" aria-label="Supremo Logo">
  <title>Russell Richardson SVG Logo</title>
  <path d="M116.06,41.36h-5.81a2.47,2.47,0,0,1-2.32-1.22l-4.6-8a2.12,2.12,0,0,0-.72-.76,2.31,2.31,0,0,0-1.14-.23H99.84V41.36H93.42V13.68h9a18.56,18.56,0,0,1,5.12.61A9.83,9.83,0,0,1,111,16a6.65,6.65,0,0,1,2,2.61,8.71,8.71,0,0,1,.61,3.26,8.83,8.83,0,0,1-.37,2.55,7.65,7.65,0,0,1-1.06,2.21,8.09,8.09,0,0,1-1.74,1.82A9.23,9.23,0,0,1,108,29.77a5.39,5.39,0,0,1,1.18.81,5.55,5.55,0,0,1,1,1.15ZM102.42,26.69a6.6,6.6,0,0,0,2.23-.33,4,4,0,0,0,1.51-.92,3.57,3.57,0,0,0,.86-1.38,5.22,5.22,0,0,0,.27-1.7,3.56,3.56,0,0,0-1.19-2.85,5.5,5.5,0,0,0-3.68-1H99.84v8.21Zm32.51-5v19.7h-3.65a1.39,1.39,0,0,1-1.44-1l-.34-1.14a12,12,0,0,1-1.18,1A7.36,7.36,0,0,1,127,41a8,8,0,0,1-1.5.49,8.13,8.13,0,0,1-1.76.18,6.79,6.79,0,0,1-2.86-.56,5.75,5.75,0,0,1-2.1-1.57,6.79,6.79,0,0,1-1.29-2.37,9.84,9.84,0,0,1-.44-3V21.66H123v12.5a3.46,3.46,0,0,0,.66,2.26,2.43,2.43,0,0,0,2,.8,4.18,4.18,0,0,0,1.82-.41A7.19,7.19,0,0,0,129,35.7v-14ZM151.74,26a1.49,1.49,0,0,1-.48.51,1.29,1.29,0,0,1-.66.15,2.11,2.11,0,0,1-.83-.18l-.9-.39a10,10,0,0,0-1.1-.39,4.81,4.81,0,0,0-1.38-.18,3,3,0,0,0-1.72.43,1.38,1.38,0,0,0-.6,1.19,1.18,1.18,0,0,0,.39.91,3.71,3.71,0,0,0,1,.64c.43.18.92.35,1.47.52s1.1.35,1.67.55a14.43,14.43,0,0,1,1.67.71,6.32,6.32,0,0,1,1.46,1,4.52,4.52,0,0,1,1,1.45,5,5,0,0,1,.39,2.06,6.8,6.8,0,0,1-.53,2.69,5.74,5.74,0,0,1-1.59,2.13,7.42,7.42,0,0,1-2.6,1.39,11.76,11.76,0,0,1-3.57.49,10.52,10.52,0,0,1-2-.19,14,14,0,0,1-1.95-.51,11.45,11.45,0,0,1-1.74-.77,7.76,7.76,0,0,1-1.36-1l1.36-2.17a1.82,1.82,0,0,1,.58-.59,1.68,1.68,0,0,1,.91-.22,1.77,1.77,0,0,1,.92.23l.88.49a7.23,7.23,0,0,0,1.11.49,4.65,4.65,0,0,0,1.61.23,4.33,4.33,0,0,0,1.16-.14,2.26,2.26,0,0,0,.76-.39,1.56,1.56,0,0,0,.42-.55,1.69,1.69,0,0,0,.13-.63,1.28,1.28,0,0,0-.4-1,3.43,3.43,0,0,0-1.05-.65,11.85,11.85,0,0,0-1.47-.52c-.55-.15-1.11-.34-1.68-.54a12.37,12.37,0,0,1-1.68-.73,5.81,5.81,0,0,1-1.47-1.08,5.1,5.1,0,0,1-1.05-1.61,6,6,0,0,1-.4-2.3A5.86,5.86,0,0,1,139,25.2a5.49,5.49,0,0,1,1.45-2,7.29,7.29,0,0,1,2.43-1.36,10.72,10.72,0,0,1,3.42-.5,11.52,11.52,0,0,1,2.06.19,11.76,11.76,0,0,1,1.88.53,9.11,9.11,0,0,1,1.59.81,7.27,7.27,0,0,1,1.27,1ZM169,26a1.6,1.6,0,0,1-.49.51,1.28,1.28,0,0,1-.65.15,2.12,2.12,0,0,1-.84-.18l-.9-.39a9.75,9.75,0,0,0-1.09-.39,4.93,4.93,0,0,0-1.39-.18,3,3,0,0,0-1.72.43,1.38,1.38,0,0,0-.6,1.19,1.18,1.18,0,0,0,.39.91,3.78,3.78,0,0,0,1,.64c.43.18.91.35,1.46.52s1.1.35,1.67.55a14.43,14.43,0,0,1,1.67.71,6.61,6.61,0,0,1,1.47,1,4.49,4.49,0,0,1,1,1.45,5,5,0,0,1,.39,2.06,6.8,6.8,0,0,1-.53,2.69,5.63,5.63,0,0,1-1.59,2.13,7.42,7.42,0,0,1-2.6,1.39,11.69,11.69,0,0,1-3.56.49,10.63,10.63,0,0,1-2-.19,13.46,13.46,0,0,1-1.94-.51,10.64,10.64,0,0,1-1.74-.77,7.49,7.49,0,0,1-1.37-1l1.37-2.17a1.64,1.64,0,0,1,.58-.59,1.62,1.62,0,0,1,.9-.22,1.77,1.77,0,0,1,.92.23l.88.49a7,7,0,0,0,1.12.49,4.55,4.55,0,0,0,1.6.23,4.28,4.28,0,0,0,1.16-.14,2.17,2.17,0,0,0,.76-.39,1.56,1.56,0,0,0,.42-.55,1.51,1.51,0,0,0,.13-.63,1.28,1.28,0,0,0-.4-1,3.37,3.37,0,0,0-1-.65,11.47,11.47,0,0,0-1.48-.52c-.55-.15-1.11-.34-1.68-.54a12.37,12.37,0,0,1-1.68-.73,5.81,5.81,0,0,1-1.47-1.08,5.1,5.1,0,0,1-1-1.61,6.39,6.39,0,0,1,.09-4.68,5.61,5.61,0,0,1,1.45-2,7.29,7.29,0,0,1,2.43-1.36,10.72,10.72,0,0,1,3.42-.5,11.72,11.72,0,0,1,2.07.19,11.93,11.93,0,0,1,1.87.53,9.11,9.11,0,0,1,1.59.81,7.35,7.35,0,0,1,1.28,1Zm9.55,6.59A5.5,5.5,0,0,0,180,36.14a4.45,4.45,0,0,0,3.13,1.11,5.83,5.83,0,0,0,1.77-.24,10.3,10.3,0,0,0,1.32-.55c.38-.21.74-.39,1.06-.55a2.14,2.14,0,0,1,1-.25,1.21,1.21,0,0,1,1.06.51l1.71,2.11a8.65,8.65,0,0,1-2,1.7A10.15,10.15,0,0,1,187,41a12.7,12.7,0,0,1-2.22.51,15.82,15.82,0,0,1-2.12.14,11.08,11.08,0,0,1-3.89-.67,8.84,8.84,0,0,1-3.17-2,9.35,9.35,0,0,1-2.15-3.3,12.48,12.48,0,0,1-.79-4.6,10.34,10.34,0,0,1,.68-3.74,9.12,9.12,0,0,1,5-5.21,10.14,10.14,0,0,1,4.06-.78A10,10,0,0,1,186,22a7.73,7.73,0,0,1,2.8,1.77,8.07,8.07,0,0,1,1.82,2.84,10.35,10.35,0,0,1,.66,3.81,7.9,7.9,0,0,1-.06,1.08,1.71,1.71,0,0,1-.21.66.82.82,0,0,1-.41.35,2,2,0,0,1-.65.09Zm7.41-3.42a5.26,5.26,0,0,0-.18-1.37,3.12,3.12,0,0,0-.59-1.18,3,3,0,0,0-1.07-.85,3.73,3.73,0,0,0-1.61-.32,3.54,3.54,0,0,0-2.63,1,5,5,0,0,0-1.25,2.76Zm14.42-16.22V41.36h-5.89V12.92Zm10.19,0V41.36h-5.89V12.92ZM246.5,41.36h-5.82a2.48,2.48,0,0,1-2.32-1.22l-4.59-8a2.23,2.23,0,0,0-.73-.76,2.31,2.31,0,0,0-1.14-.23h-1.63V41.36h-6.42V13.68h9a18.51,18.51,0,0,1,5.12.61A9.75,9.75,0,0,1,241.43,16a6.56,6.56,0,0,1,1.95,2.61,8.52,8.52,0,0,1,.61,3.26,8.83,8.83,0,0,1-.36,2.55,7.67,7.67,0,0,1-1.07,2.21,8.09,8.09,0,0,1-1.74,1.82,9.23,9.23,0,0,1-2.38,1.31,5.39,5.39,0,0,1,1.18.81,5.59,5.59,0,0,1,1,1.15ZM232.85,26.69a6.7,6.7,0,0,0,2.24-.33,4.14,4.14,0,0,0,1.51-.92,3.67,3.67,0,0,0,.85-1.38,5.22,5.22,0,0,0,.27-1.7,3.56,3.56,0,0,0-1.19-2.85,5.5,5.5,0,0,0-3.68-1h-2.58v8.21Zm22.73-10.43a3.1,3.1,0,0,1-.29,1.32,3.47,3.47,0,0,1-.78,1.08,3.72,3.72,0,0,1-1.15.74,3.42,3.42,0,0,1-1.39.28,3.23,3.23,0,0,1-1.35-.28,3.66,3.66,0,0,1-1.11-.74,3.26,3.26,0,0,1-.76-1.08,3.1,3.1,0,0,1-.28-1.32,3.42,3.42,0,0,1,1-2.45,3.48,3.48,0,0,1,1.11-.74A3.39,3.39,0,0,1,252,12.8a3.59,3.59,0,0,1,1.39.27,3.55,3.55,0,0,1,1.15.74,3.44,3.44,0,0,1,.78,1.1A3.24,3.24,0,0,1,255.58,16.26Zm-.61,5.4v19.7h-5.89V21.66Zm18.9,4.67a3.06,3.06,0,0,1-.51.51,1.1,1.1,0,0,1-.7.19,1.51,1.51,0,0,1-.79-.21l-.79-.46a5.85,5.85,0,0,0-1-.47,4.38,4.38,0,0,0-1.46-.21,4.19,4.19,0,0,0-1.87.4,3.48,3.48,0,0,0-1.3,1.14,5.2,5.2,0,0,0-.76,1.82,10.47,10.47,0,0,0-.25,2.42,7.43,7.43,0,0,0,1.09,4.35,3.53,3.53,0,0,0,3,1.52,4,4,0,0,0,1.62-.26,4.87,4.87,0,0,0,1-.57l.77-.58a1.46,1.46,0,0,1,.88-.26,1.21,1.21,0,0,1,1.06.51l1.71,2.11a8.89,8.89,0,0,1-1.92,1.7,9.45,9.45,0,0,1-2.06,1,11.47,11.47,0,0,1-2.12.51,14.79,14.79,0,0,1-2.07.14A9,9,0,0,1,264,41a8.51,8.51,0,0,1-2.88-2,9.53,9.53,0,0,1-2-3.2,11.91,11.91,0,0,1-.73-4.33,12,12,0,0,1,.64-4,8.87,8.87,0,0,1,1.88-3.21A8.7,8.7,0,0,1,264,22.13a10.81,10.81,0,0,1,4.25-.78,10.45,10.45,0,0,1,4.07.74,9.94,9.94,0,0,1,3.15,2.17Zm10.21-2.95a10,10,0,0,1,2.31-1.47,7.25,7.25,0,0,1,3-.56,7,7,0,0,1,2.86.56,6,6,0,0,1,2.1,1.56,6.71,6.71,0,0,1,1.29,2.37,9.93,9.93,0,0,1,.44,3V41.36h-5.89V28.84a3.39,3.39,0,0,0-.67-2.25,2.37,2.37,0,0,0-1.95-.81,4.15,4.15,0,0,0-1.82.41,7.19,7.19,0,0,0-1.64,1.11V41.36h-5.89V12.92h5.89Zm15.63,1a12.16,12.16,0,0,1,4-2.35,13.93,13.93,0,0,1,4.66-.76,8.67,8.67,0,0,1,3.22.57,6.87,6.87,0,0,1,4,4.08,8.74,8.74,0,0,1,.53,3.12V41.36h-2.69a2.82,2.82,0,0,1-1.27-.23,1.76,1.76,0,0,1-.71-1L311,39.1c-.49.42-1,.78-1.42,1.1a8.78,8.78,0,0,1-1.42.81,7.1,7.1,0,0,1-1.56.49,9.37,9.37,0,0,1-1.83.16,8.14,8.14,0,0,1-2.45-.35,5.05,5.05,0,0,1-1.87-1,4.59,4.59,0,0,1-1.19-1.7,6.12,6.12,0,0,1-.42-2.35,5,5,0,0,1,.53-2.16,5.31,5.31,0,0,1,1.85-2,11.57,11.57,0,0,1,3.53-1.51,23.4,23.4,0,0,1,5.61-.69v-.83a3.57,3.57,0,0,0-.72-2.5,2.62,2.62,0,0,0-2-.77,5.12,5.12,0,0,0-1.71.23,7.74,7.74,0,0,0-1.19.51c-.35.19-.68.36-1,.51a2.85,2.85,0,0,1-1.18.23,1.72,1.72,0,0,1-1-.3,2.77,2.77,0,0,1-.68-.73Zm10.61,9a19.82,19.82,0,0,0-2.91.3,7.92,7.92,0,0,0-1.81.57,2.22,2.22,0,0,0-.92.78,1.88,1.88,0,0,0-.25.95,1.64,1.64,0,0,0,.55,1.42,2.67,2.67,0,0,0,1.61.41,4.79,4.79,0,0,0,2-.4,6.36,6.36,0,0,0,1.73-1.29Zm14.55-8.64a8.18,8.18,0,0,1,2.1-2.51,4.34,4.34,0,0,1,2.73-.91,3.5,3.5,0,0,1,2.16.62l-.38,4.33a.91.91,0,0,1-.31.57,1,1,0,0,1-.6.16l-.4,0-.51-.05-.54-.06-.51,0a3,3,0,0,0-2.06.69,5.31,5.31,0,0,0-1.3,1.9v12h-5.89V21.66h3.5a3.06,3.06,0,0,1,.73.07,1.25,1.25,0,0,1,.49.24,1,1,0,0,1,.3.43,4.57,4.57,0,0,1,.19.64ZM351.7,12.92V41.36h-3.65a1.39,1.39,0,0,1-1.45-1l-.45-1.5A11,11,0,0,1,344.91,40a7.42,7.42,0,0,1-1.39.88,7.06,7.06,0,0,1-1.62.57,7.89,7.89,0,0,1-1.87.2,6.11,6.11,0,0,1-2.85-.68,6.64,6.64,0,0,1-2.26-2,10,10,0,0,1-1.49-3.16,15.43,15.43,0,0,1-.54-4.27,13.43,13.43,0,0,1,.6-4.09,10.18,10.18,0,0,1,1.72-3.27,8.06,8.06,0,0,1,2.67-2.16,7.72,7.72,0,0,1,3.44-.77,6.78,6.78,0,0,1,2.59.43,7.19,7.19,0,0,1,1.9,1.18v-10Zm-5.89,14a3.77,3.77,0,0,0-1.45-1,4.7,4.7,0,0,0-1.63-.29,3.36,3.36,0,0,0-1.5.32A3.08,3.08,0,0,0,340,27a5.37,5.37,0,0,0-.79,1.85,11.53,11.53,0,0,0-.28,2.75,13,13,0,0,0,.22,2.63,5.69,5.69,0,0,0,.64,1.72,2.51,2.51,0,0,0,1,.94,2.92,2.92,0,0,0,1.27.28,5.26,5.26,0,0,0,1.17-.12,4.54,4.54,0,0,0,1-.35,4.6,4.6,0,0,0,.83-.58,10.07,10.07,0,0,0,.77-.81Zm22.7-1a1.49,1.49,0,0,1-.48.51,1.29,1.29,0,0,1-.66.15,2,2,0,0,1-.83-.18l-.91-.39a9.08,9.08,0,0,0-1.09-.39,4.93,4.93,0,0,0-1.39-.18,3,3,0,0,0-1.72.43,1.38,1.38,0,0,0-.6,1.19,1.18,1.18,0,0,0,.39.91,3.78,3.78,0,0,0,1,.64c.43.18.92.35,1.46.52s1.11.35,1.68.55a16.08,16.08,0,0,1,1.67.71,6.54,6.54,0,0,1,1.46,1,4.52,4.52,0,0,1,1,1.45A5,5,0,0,1,370,35a6.63,6.63,0,0,1-.54,2.69,5.61,5.61,0,0,1-1.58,2.13,7.47,7.47,0,0,1-2.61,1.39,11.69,11.69,0,0,1-3.56.49,10.52,10.52,0,0,1-2-.19,14,14,0,0,1-2-.51,10.64,10.64,0,0,1-1.74-.77,7.86,7.86,0,0,1-1.37-1L356,37.06a1.73,1.73,0,0,1,.58-.59,1.67,1.67,0,0,1,.9-.22,1.83,1.83,0,0,1,.93.23l.88.49a6.82,6.82,0,0,0,1.11.49,4.61,4.61,0,0,0,1.61.23,4.2,4.2,0,0,0,1.15-.14,2.17,2.17,0,0,0,.76-.39,1.56,1.56,0,0,0,.42-.55,1.52,1.52,0,0,0,.14-.63,1.32,1.32,0,0,0-.4-1,3.55,3.55,0,0,0-1.05-.65,11.85,11.85,0,0,0-1.47-.52c-.55-.15-1.11-.34-1.68-.54a12.37,12.37,0,0,1-1.68-.73,5.69,5.69,0,0,1-1.48-1.08,4.92,4.92,0,0,1-1-1.61,5.85,5.85,0,0,1-.4-2.3,6,6,0,0,1,.48-2.38,5.64,5.64,0,0,1,1.46-2,7.1,7.1,0,0,1,2.43-1.36,10.63,10.63,0,0,1,3.42-.5,11.52,11.52,0,0,1,2.06.19,11.35,11.35,0,0,1,1.87.53,9.22,9.22,0,0,1,1.6.81,7.66,7.66,0,0,1,1.27,1Zm13.8-4.62a11.57,11.57,0,0,1,4.08.7,8.88,8.88,0,0,1,3.16,2,9.06,9.06,0,0,1,2.06,3.18,11.65,11.65,0,0,1,.73,4.21,11.88,11.88,0,0,1-.73,4.25,9.19,9.19,0,0,1-2.06,3.21,9,9,0,0,1-3.16,2,11.35,11.35,0,0,1-4.08.71,11.53,11.53,0,0,1-4.12-.71,9.26,9.26,0,0,1-3.19-2,9.07,9.07,0,0,1-2.07-3.21,11.66,11.66,0,0,1-.73-4.25,11.44,11.44,0,0,1,.73-4.21A8.94,8.94,0,0,1,375,24.07a9.09,9.09,0,0,1,3.19-2A11.75,11.75,0,0,1,382.31,21.35Zm0,15.94a3.36,3.36,0,0,0,3-1.43,7.94,7.94,0,0,0,1-4.36,7.88,7.88,0,0,0-1-4.35,3.36,3.36,0,0,0-3-1.43,3.43,3.43,0,0,0-3.06,1.43,7.78,7.78,0,0,0-1,4.35,7.84,7.84,0,0,0,1,4.36A3.43,3.43,0,0,0,382.31,37.29ZM401,23.78c.38-.35.77-.68,1.18-1a7,7,0,0,1,1.3-.76,7.55,7.55,0,0,1,1.5-.5,8.07,8.07,0,0,1,1.76-.18,7,7,0,0,1,2.86.56,6,6,0,0,1,2.1,1.56A6.71,6.71,0,0,1,413,25.84a9.93,9.93,0,0,1,.44,3V41.36h-5.89V28.84a3.45,3.45,0,0,0-.67-2.25,2.39,2.39,0,0,0-2-.81,4.14,4.14,0,0,0-1.81.41,7.19,7.19,0,0,0-1.64,1.11V41.36h-5.89V21.66h3.64a1.39,1.39,0,0,1,1.45,1Z" fill="#fff"/>
  <path d="M100.33,55.07a.63.63,0,0,1-.21.24.46.46,0,0,1-.27.08.68.68,0,0,1-.38-.15L99,54.92a4.56,4.56,0,0,0-.73-.32,3.07,3.07,0,0,0-1-.15,3,3,0,0,0-.95.13,2.09,2.09,0,0,0-.69.38,1.54,1.54,0,0,0-.42.57,1.89,1.89,0,0,0-.14.72,1.3,1.3,0,0,0,.26.82,2.45,2.45,0,0,0,.69.57,5.56,5.56,0,0,0,1,.4l1.12.38a11.9,11.9,0,0,1,1.12.45,4,4,0,0,1,1,.64,3,3,0,0,1,.68.94,3.11,3.11,0,0,1,.26,1.36,4.32,4.32,0,0,1-.29,1.62,3.82,3.82,0,0,1-.86,1.32,4.2,4.2,0,0,1-1.39.89,5.2,5.2,0,0,1-1.87.32,6,6,0,0,1-1.21-.12,6.74,6.74,0,0,1-1.13-.34,5.64,5.64,0,0,1-1-.54,5.2,5.2,0,0,1-.84-.7l.61-1a.8.8,0,0,1,.21-.2.64.64,0,0,1,.28-.07.84.84,0,0,1,.46.19,7.38,7.38,0,0,0,.6.43,5.31,5.31,0,0,0,.86.42,3.38,3.38,0,0,0,1.21.19,2.59,2.59,0,0,0,1.77-.55,2,2,0,0,0,.62-1.54,1.42,1.42,0,0,0-.26-.9,2.09,2.09,0,0,0-.69-.58,4.79,4.79,0,0,0-1-.39l-1.12-.35A10.62,10.62,0,0,1,95,59.47a3.49,3.49,0,0,1-1-.65,2.94,2.94,0,0,1-.69-1,3.69,3.69,0,0,1-.26-1.47A3.55,3.55,0,0,1,93.32,55a3.47,3.47,0,0,1,.81-1.17,3.78,3.78,0,0,1,1.3-.81,4.61,4.61,0,0,1,1.76-.31,5.88,5.88,0,0,1,2,.35,4.77,4.77,0,0,1,1.6,1Zm7.53-2.21a7.62,7.62,0,0,1,2.2.29,4.16,4.16,0,0,1,1.53.84,3.23,3.23,0,0,1,.91,1.28,4.71,4.71,0,0,1,0,3.36,3.52,3.52,0,0,1-.94,1.32,4.34,4.34,0,0,1-1.54.87,6.9,6.9,0,0,1-2.14.31h-1.93v4.69h-2.11v-13Zm0,6.6a3.84,3.84,0,0,0,1.23-.18,2.34,2.34,0,0,0,.89-.51,2.06,2.06,0,0,0,.54-.79,2.89,2.89,0,0,0,.18-1,2.71,2.71,0,0,0-.18-1,2,2,0,0,0-.52-.77,2.37,2.37,0,0,0-.89-.48,4.29,4.29,0,0,0-1.25-.17h-1.93v5Zm15.49,4.66v1.7h-8.08v-13h8.08v1.7h-6v3.9h4.77v1.65h-4.77v4Zm11.45-1.19a.39.39,0,0,1,.3.13l.84.91A5.25,5.25,0,0,1,134,65.44a6.58,6.58,0,0,1-2.75.52,6.4,6.4,0,0,1-2.57-.49,5.59,5.59,0,0,1-2-1.37A6,6,0,0,1,125.46,62a7.87,7.87,0,0,1-.43-2.67,7.43,7.43,0,0,1,.46-2.68,6.28,6.28,0,0,1,1.31-2.1,5.86,5.86,0,0,1,2-1.36,6.6,6.6,0,0,1,2.59-.49,6.2,6.2,0,0,1,2.48.46,6,6,0,0,1,1.87,1.21l-.7,1a.69.69,0,0,1-.17.17.41.41,0,0,1-.27.07.69.69,0,0,1-.41-.17,5.06,5.06,0,0,0-.58-.36,4.42,4.42,0,0,0-.89-.37,4.65,4.65,0,0,0-1.34-.17,4.47,4.47,0,0,0-1.7.32,3.73,3.73,0,0,0-1.33.95,4.47,4.47,0,0,0-.87,1.51,6.73,6.73,0,0,0,0,4.07,4.68,4.68,0,0,0,.89,1.51,3.92,3.92,0,0,0,1.34.94,4.24,4.24,0,0,0,1.64.32,7.1,7.1,0,0,0,1-.06,3.8,3.8,0,0,0,.79-.19,3.51,3.51,0,0,0,.68-.32,5.38,5.38,0,0,0,.63-.49A.53.53,0,0,1,134.8,62.93Zm6.25,2.89h-2.12v-13h2.12Zm14.37,0h-1.63a.73.73,0,0,1-.45-.14,1,1,0,0,1-.26-.35L152,62.47h-5.58l-1.08,2.86a.85.85,0,0,1-.25.33.64.64,0,0,1-.45.16H143l5.14-13h2.13Zm-4-4.86-1.78-4.74a13.81,13.81,0,0,1-.44-1.39q-.11.42-.21.78c-.08.23-.16.44-.22.62L147,61Zm13.44,3.09v1.77h-7.49v-13h2.11V64.05Zm4.74,1.77h-2.12v-13h2.12Zm10.3-10.75a.86.86,0,0,1-.21.24.46.46,0,0,1-.27.08.68.68,0,0,1-.38-.15l-.52-.32a4.32,4.32,0,0,0-.74-.32,3,3,0,0,0-1-.15,3,3,0,0,0-.95.13,1.9,1.9,0,0,0-.69.38,1.54,1.54,0,0,0-.42.57,1.89,1.89,0,0,0-.14.72,1.3,1.3,0,0,0,.26.82,2.31,2.31,0,0,0,.69.57,5.56,5.56,0,0,0,1,.4l1.12.38a11.9,11.9,0,0,1,1.12.45,3.8,3.8,0,0,1,1,.64,2.83,2.83,0,0,1,.69.94,3.11,3.11,0,0,1,.26,1.36,4.52,4.52,0,0,1-.29,1.62,3.82,3.82,0,0,1-.86,1.32,4.2,4.2,0,0,1-1.39.89,5.22,5.22,0,0,1-1.88.32,6.13,6.13,0,0,1-1.21-.12,6.92,6.92,0,0,1-1.12-.34,5.64,5.64,0,0,1-1-.54,4.46,4.46,0,0,1-.84-.7l.61-1a.58.58,0,0,1,.21-.2.61.61,0,0,1,.28-.07.87.87,0,0,1,.46.19,7.38,7.38,0,0,0,.6.43,5.31,5.31,0,0,0,.86.42,3.38,3.38,0,0,0,1.21.19,2.59,2.59,0,0,0,1.77-.55,2,2,0,0,0,.62-1.54,1.42,1.42,0,0,0-.26-.9,2.09,2.09,0,0,0-.69-.58,4.79,4.79,0,0,0-1-.39l-1.12-.35a11.73,11.73,0,0,1-1.12-.43,3.59,3.59,0,0,1-1-.65,2.94,2.94,0,0,1-.69-1,3.69,3.69,0,0,1-.26-1.47A3.55,3.55,0,0,1,172.9,55a3.59,3.59,0,0,1,.8-1.17A4,4,0,0,1,175,53a4.69,4.69,0,0,1,1.77-.31,5.88,5.88,0,0,1,2,.35,4.77,4.77,0,0,1,1.6,1Zm12.41-.46h-4V65.82h-2.1V54.61h-4.05V52.86h10.19Zm9,.46a.63.63,0,0,1-.21.24.46.46,0,0,1-.27.08.68.68,0,0,1-.38-.15l-.52-.32a4.56,4.56,0,0,0-.73-.32,3.07,3.07,0,0,0-1-.15,3,3,0,0,0-.95.13,2.09,2.09,0,0,0-.69.38,1.54,1.54,0,0,0-.42.57,1.89,1.89,0,0,0-.14.72,1.3,1.3,0,0,0,.26.82,2.45,2.45,0,0,0,.69.57,5.56,5.56,0,0,0,1,.4l1.12.38a11.9,11.9,0,0,1,1.12.45,3.86,3.86,0,0,1,1,.64,3,3,0,0,1,.68.94,3.11,3.11,0,0,1,.26,1.36,4.32,4.32,0,0,1-.29,1.62,3.82,3.82,0,0,1-.86,1.32,4.2,4.2,0,0,1-1.39.89,5.2,5.2,0,0,1-1.87.32,6,6,0,0,1-1.21-.12,6.74,6.74,0,0,1-1.13-.34,5.64,5.64,0,0,1-1-.54,4.8,4.8,0,0,1-.84-.7l.61-1a.67.67,0,0,1,.21-.2.64.64,0,0,1,.28-.07.84.84,0,0,1,.46.19,7.38,7.38,0,0,0,.6.43,5.31,5.31,0,0,0,.86.42,3.38,3.38,0,0,0,1.21.19,2.59,2.59,0,0,0,1.77-.55,2,2,0,0,0,.62-1.54,1.42,1.42,0,0,0-.26-.9,2.16,2.16,0,0,0-.68-.58,5.13,5.13,0,0,0-1-.39l-1.12-.35a10.62,10.62,0,0,1-1.11-.43,3.49,3.49,0,0,1-1-.65,2.94,2.94,0,0,1-.69-1,3.69,3.69,0,0,1-.26-1.47A3.55,3.55,0,0,1,194.3,55a3.47,3.47,0,0,1,.81-1.17,3.78,3.78,0,0,1,1.3-.81,4.61,4.61,0,0,1,1.76-.31,5.88,5.88,0,0,1,2.05.35,4.77,4.77,0,0,1,1.6,1Zm9.46,10.75h-2.12v-13h2.12Zm14.25-13v13H224a.86.86,0,0,1-.41-.09,1,1,0,0,1-.32-.28L216.1,56.3c0,.18,0,.35,0,.52s0,.33,0,.47v8.53H214.3v-13h1.32l.18.05A.48.48,0,0,1,216,53l.16.18,7.12,9.15c0-.19,0-.37,0-.55s0-.35,0-.5V52.86Zm14.17,2.21a.86.86,0,0,1-.21.24.46.46,0,0,1-.27.08.68.68,0,0,1-.38-.15l-.52-.32a4.56,4.56,0,0,0-.73-.32,3.07,3.07,0,0,0-1-.15,3,3,0,0,0-.95.13,2,2,0,0,0-.69.38,1.54,1.54,0,0,0-.42.57,1.89,1.89,0,0,0-.14.72,1.3,1.3,0,0,0,.26.82,2.45,2.45,0,0,0,.69.57,5.56,5.56,0,0,0,1,.4l1.12.38a11.9,11.9,0,0,1,1.12.45,3.8,3.8,0,0,1,1,.64,2.83,2.83,0,0,1,.69.94,3.11,3.11,0,0,1,.26,1.36,4.32,4.32,0,0,1-.29,1.62,3.82,3.82,0,0,1-.86,1.32,4.2,4.2,0,0,1-1.39.89,5.22,5.22,0,0,1-1.88.32,6.13,6.13,0,0,1-1.21-.12,6.92,6.92,0,0,1-1.12-.34,5.64,5.64,0,0,1-1-.54,4.8,4.8,0,0,1-.84-.7l.61-1a.67.67,0,0,1,.21-.2.64.64,0,0,1,.28-.07.87.87,0,0,1,.46.19,7.38,7.38,0,0,0,.6.43,5.31,5.31,0,0,0,.86.42,3.38,3.38,0,0,0,1.21.19,2.59,2.59,0,0,0,1.77-.55,2,2,0,0,0,.62-1.54,1.42,1.42,0,0,0-.26-.9,2.09,2.09,0,0,0-.69-.58,4.79,4.79,0,0,0-1-.39L235,59.9a11.73,11.73,0,0,1-1.12-.43,3.59,3.59,0,0,1-1-.65,2.94,2.94,0,0,1-.69-1,3.69,3.69,0,0,1-.26-1.47,3.55,3.55,0,0,1,.27-1.36,3.59,3.59,0,0,1,.8-1.17,3.93,3.93,0,0,1,1.31-.81,4.61,4.61,0,0,1,1.76-.31,5.88,5.88,0,0,1,2,.35,4.77,4.77,0,0,1,1.6,1Zm11.58,9.05v1.7h-8.08v-13h8.08v1.7h-6v3.9h4.77v1.65H244.8v4Zm11.45-1.19a.39.39,0,0,1,.3.13l.84.91a5.25,5.25,0,0,1-1.95,1.47,6.58,6.58,0,0,1-2.75.52,6.4,6.4,0,0,1-2.57-.49,5.59,5.59,0,0,1-2-1.37A6,6,0,0,1,252.88,62a7.87,7.87,0,0,1-.43-2.67,7.43,7.43,0,0,1,.46-2.68,6.28,6.28,0,0,1,1.31-2.1,5.86,5.86,0,0,1,2-1.36,6.6,6.6,0,0,1,2.59-.49,6.2,6.2,0,0,1,2.48.46,6,6,0,0,1,1.87,1.21l-.7,1a.69.69,0,0,1-.17.17.41.41,0,0,1-.27.07.69.69,0,0,1-.41-.17,5.06,5.06,0,0,0-.58-.36,4.42,4.42,0,0,0-.89-.37,4.65,4.65,0,0,0-1.34-.17,4.47,4.47,0,0,0-1.7.32,3.73,3.73,0,0,0-1.33.95,4.47,4.47,0,0,0-.87,1.51,6.73,6.73,0,0,0,0,4.07,4.68,4.68,0,0,0,.89,1.51,3.92,3.92,0,0,0,1.34.94,4.24,4.24,0,0,0,1.64.32,7.1,7.1,0,0,0,1-.06,3.8,3.8,0,0,0,.79-.19,3.51,3.51,0,0,0,.68-.32,5.38,5.38,0,0,0,.63-.49A.53.53,0,0,1,262.22,62.93Zm9.24,1.19a3.34,3.34,0,0,0,1.34-.26,2.74,2.74,0,0,0,1-.7,3.2,3.2,0,0,0,.63-1.08,4.53,4.53,0,0,0,.21-1.41V52.86h2.1v7.81a5.78,5.78,0,0,1-.37,2.11,4.81,4.81,0,0,1-1,1.68,4.94,4.94,0,0,1-1.66,1.11,6.28,6.28,0,0,1-4.41,0,4.74,4.74,0,0,1-2.71-2.79,6,6,0,0,1-.36-2.11V52.86h2.11v7.8a4.49,4.49,0,0,0,.21,1.41,3.33,3.33,0,0,0,.62,1.09,2.74,2.74,0,0,0,1,.7A3.32,3.32,0,0,0,271.46,64.12ZM290,65.82H288.1a.85.85,0,0,1-.81-.44l-3-4.36a.91.91,0,0,0-.33-.32,1.1,1.1,0,0,0-.54-.1h-1.17v5.22h-2.11v-13h3.82a8,8,0,0,1,2.2.26,4.15,4.15,0,0,1,1.52.74,3,3,0,0,1,.87,1.16,3.82,3.82,0,0,1,.29,1.5,3.7,3.7,0,0,1-.21,1.26,3.53,3.53,0,0,1-.58,1.06,3.76,3.76,0,0,1-.94.83,4.88,4.88,0,0,1-1.27.55,2,2,0,0,1,.67.66Zm-6.1-6.75a3.88,3.88,0,0,0,1.25-.18,2.64,2.64,0,0,0,.91-.49,2,2,0,0,0,.54-.75,2.5,2.5,0,0,0,.17-1,1.93,1.93,0,0,0-.7-1.62,3.38,3.38,0,0,0-2.12-.56h-1.71v4.57Zm16.56,5.05v1.7h-8.08v-13h8.08v1.7h-6v3.9h4.77v1.65h-4.77v4Zm14.44-9.05a.86.86,0,0,1-.21.24.46.46,0,0,1-.27.08.68.68,0,0,1-.38-.15l-.52-.32a4.32,4.32,0,0,0-.74-.32,3,3,0,0,0-1-.15,3,3,0,0,0-.95.13,1.9,1.9,0,0,0-.69.38,1.54,1.54,0,0,0-.42.57,1.89,1.89,0,0,0-.14.72,1.3,1.3,0,0,0,.26.82,2.31,2.31,0,0,0,.69.57,5.26,5.26,0,0,0,1,.4l1.12.38a11.9,11.9,0,0,1,1.12.45,3.8,3.8,0,0,1,1,.64,2.83,2.83,0,0,1,.69.94,3.11,3.11,0,0,1,.26,1.36,4.52,4.52,0,0,1-.29,1.62,3.82,3.82,0,0,1-.86,1.32,4.2,4.2,0,0,1-1.39.89,5.22,5.22,0,0,1-1.88.32,6.13,6.13,0,0,1-1.21-.12,6.92,6.92,0,0,1-1.12-.34,5.64,5.64,0,0,1-1-.54,4.46,4.46,0,0,1-.84-.7l.61-1a.58.58,0,0,1,.21-.2.61.61,0,0,1,.28-.07.87.87,0,0,1,.46.19,7.38,7.38,0,0,0,.6.43,5.31,5.31,0,0,0,.86.42,3.38,3.38,0,0,0,1.21.19,2.59,2.59,0,0,0,1.77-.55,2,2,0,0,0,.62-1.54,1.42,1.42,0,0,0-.26-.9,2.09,2.09,0,0,0-.69-.58,4.79,4.79,0,0,0-1-.39l-1.12-.35a11.73,11.73,0,0,1-1.12-.43,3.59,3.59,0,0,1-1-.65,2.94,2.94,0,0,1-.69-1,3.69,3.69,0,0,1-.26-1.47,3.55,3.55,0,0,1,.27-1.36,3.59,3.59,0,0,1,.8-1.17A4,4,0,0,1,310,53a4.69,4.69,0,0,1,1.77-.31,5.88,5.88,0,0,1,2.05.35,4.77,4.77,0,0,1,1.6,1Zm14.22-2.21v13H327V60.05h-6.5v5.77h-2.12v-13h2.12v5.67H327V52.86Zm13.4,13h-1.88a.87.87,0,0,1-.81-.44l-3-4.36a.91.91,0,0,0-.33-.32,1.1,1.1,0,0,0-.54-.1h-1.17v5.22h-2.11v-13h3.82a7.9,7.9,0,0,1,2.2.26,4.15,4.15,0,0,1,1.52.74A2.89,2.89,0,0,1,341,55a3.82,3.82,0,0,1,.29,1.5,4,4,0,0,1-.2,1.26,3.56,3.56,0,0,1-.59,1.06,3.59,3.59,0,0,1-.94.83,4.73,4.73,0,0,1-1.27.55,2,2,0,0,1,.67.66Zm-6.1-6.75a4,4,0,0,0,1.26-.18,2.59,2.59,0,0,0,.9-.49,2,2,0,0,0,.54-.75,2.5,2.5,0,0,0,.18-1,1.94,1.94,0,0,0-.71-1.62,3.36,3.36,0,0,0-2.12-.56h-1.71v4.57Zm16.21,5.05v1.7h-8.09v-13h8.09v1.7h-6v3.9h4.77v1.65h-4.77v4Zm14.1-4.78a7.19,7.19,0,0,1-.47,2.63,5.93,5.93,0,0,1-1.32,2,5.8,5.8,0,0,1-2,1.32,7.06,7.06,0,0,1-2.65.48h-4.9v-13h4.9a7.06,7.06,0,0,1,2.65.47,5.82,5.82,0,0,1,2,1.33,5.89,5.89,0,0,1,1.32,2A7.25,7.25,0,0,1,366.71,59.34Zm-2.15,0a6.25,6.25,0,0,0-.3-2,4,4,0,0,0-.87-1.5,3.73,3.73,0,0,0-1.36-.94,4.69,4.69,0,0,0-1.8-.33h-2.78v9.56h2.78a4.69,4.69,0,0,0,1.8-.33,3.61,3.61,0,0,0,1.36-.94,4.12,4.12,0,0,0,.87-1.5A6.25,6.25,0,0,0,364.56,59.34Zm16.29,0a7.19,7.19,0,0,1-.47,2.63A5.78,5.78,0,0,1,377,65.34a7.06,7.06,0,0,1-2.65.48h-4.9v-13h4.9a7.06,7.06,0,0,1,2.65.47,5.85,5.85,0,0,1,3.36,3.37A7.25,7.25,0,0,1,380.85,59.34Zm-2.15,0a6.25,6.25,0,0,0-.3-2,4.18,4.18,0,0,0-.87-1.5,3.73,3.73,0,0,0-1.36-.94,4.73,4.73,0,0,0-1.8-.33h-2.78v9.56h2.78a4.73,4.73,0,0,0,1.8-.33,3.61,3.61,0,0,0,1.36-.94,4.26,4.26,0,0,0,.87-1.5A6.25,6.25,0,0,0,378.7,59.34Zm7,6.48h-2.12v-13h2.12Zm14.25-13v13h-1.07a.86.86,0,0,1-.41-.09,1,1,0,0,1-.33-.28l-7.12-9.15c0,.18,0,.35,0,.52s0,.33,0,.47v8.53h-1.86v-13h1.33l.18.05a.48.48,0,0,1,.15.11l.15.18,7.13,9.15c0-.19,0-.37,0-.55s0-.35,0-.5V52.86Zm14.87,6.58v5.13a7.49,7.49,0,0,1-4.5,1.39,7.82,7.82,0,0,1-2.85-.49,6.28,6.28,0,0,1-2.17-1.37A6,6,0,0,1,403.94,62a7.21,7.21,0,0,1-.48-2.67,7.48,7.48,0,0,1,.46-2.69,5.86,5.86,0,0,1,3.45-3.46,7.59,7.59,0,0,1,2.77-.48,8.38,8.38,0,0,1,1.46.12,8.61,8.61,0,0,1,1.24.34,6.15,6.15,0,0,1,1.06.52,5.14,5.14,0,0,1,.89.69l-.6,1a.6.6,0,0,1-.37.28.59.59,0,0,1-.48-.11l-.56-.32a3.81,3.81,0,0,0-.67-.32,5.36,5.36,0,0,0-.87-.25,6.63,6.63,0,0,0-1.17-.09,4.76,4.76,0,0,0-1.85.34,3.85,3.85,0,0,0-1.41,1,4.26,4.26,0,0,0-.9,1.52,5.9,5.9,0,0,0-.31,2,6.07,6.07,0,0,0,.33,2.07,4.26,4.26,0,0,0,.95,1.55,4.1,4.1,0,0,0,1.48,1,5.35,5.35,0,0,0,1.93.33,5.61,5.61,0,0,0,1.43-.17,6.39,6.39,0,0,0,1.23-.48V61h-1.81a.42.42,0,0,1-.32-.12.37.37,0,0,1-.12-.29V59.44Z" fill="#fff"/>
  <path d="M74,20.19c-4.88-.56-22.68-2.51-34.45-2.51S9.93,19.63,5.05,20.19a39.44,39.44,0,0,0,0,38.62c4.88.56,22.68,2.51,34.45,2.51s29.57-2,34.45-2.51a39.44,39.44,0,0,0,0-38.62ZM55.9,52.12A2.34,2.34,0,0,1,53.7,51l-4.35-7.61a2.24,2.24,0,0,0-.69-.71,2.12,2.12,0,0,0-1.08-.23H46v9.7H35.54A2.32,2.32,0,0,1,33.35,51L29,43.36a2.12,2.12,0,0,0-.68-.71,2.17,2.17,0,0,0-1.08-.23H25.68v9.7H19.59V25.9h8.53a17.58,17.58,0,0,1,4.86.58,9.19,9.19,0,0,1,3.27,1.63,6.22,6.22,0,0,1,1.85,2.47,8.71,8.71,0,0,1,.23,5.51,7.57,7.57,0,0,1-2.65,3.81,8.63,8.63,0,0,1-2.26,1.24,5.54,5.54,0,0,1,2,1.86L40,50.33V25.9h8.53a17.46,17.46,0,0,1,4.85.58,9.24,9.24,0,0,1,3.28,1.63,6.11,6.11,0,0,1,1.84,2.47A8.06,8.06,0,0,1,59,33.67a8.28,8.28,0,0,1-.34,2.42,7.62,7.62,0,0,1-1,2.09A7.26,7.26,0,0,1,56,39.9a8.32,8.32,0,0,1-2.26,1.24A5.46,5.46,0,0,1,55.83,43l5.58,9.12ZM31.61,31.42a3.38,3.38,0,0,1,1.12,2.7,5,5,0,0,1-.25,1.62,3.4,3.4,0,0,1-.81,1.3,3.84,3.84,0,0,1-1.43.87,6.27,6.27,0,0,1-2.12.32H25.68V30.45h2.44A5.29,5.29,0,0,1,31.61,31.42Zm20.36,0a3.38,3.38,0,0,1,1.12,2.7,5,5,0,0,1-.25,1.62A3.4,3.4,0,0,1,52,37a3.84,3.84,0,0,1-1.43.87,6.27,6.27,0,0,1-2.12.32H46V30.45h2.45A5.31,5.31,0,0,1,52,31.42ZM39.5,12.68c-9.81,0-23.29,1.27-30.77,2.07a38.82,38.82,0,0,1,4.11-4.39C20.48,9.6,31.41,8.68,39.5,8.68s19,.92,26.66,1.68a38.82,38.82,0,0,1,4.11,4.39C62.79,14,49.31,12.68,39.5,12.68Zm0-9c-5.57,0-12.32.41-18.49.91a39.54,39.54,0,0,1,37,0C51.82,4.09,45.07,3.68,39.5,3.68Zm0,62.64c9.81,0,23.29-1.27,30.77-2.07a38.82,38.82,0,0,1-4.11,4.39c-7.64.76-18.57,1.68-26.66,1.68s-19-.92-26.66-1.68a38.82,38.82,0,0,1-4.11-4.39C16.21,65.05,29.69,66.32,39.5,66.32Zm0,9c5.57,0,12.32-.41,18.49-.91a39.54,39.54,0,0,1-37,0C27.18,74.91,33.93,75.32,39.5,75.32Z" fill="#fff"/>
</svg>
