<svg class="bg-shape" xmlns="http://www.w3.org/2000/svg" viewBox="0 0 79 79">
	<title>Background Shape</title>
	<path d="M74,58.8c3.2-5.7,5-12.3,5-19.3c0-7-1.8-13.6-5-19.3c-4.9-0.6-22.7-2.5-34.5-2.5S9.9,19.6,5,20.2
		c-3.2,5.7-5,12.3-5,19.3c0,7,1.8,13.6,5,19.3c4.9,0.6,22.7,2.5,34.5,2.5S69.1,59.4,74,58.8z" fill="#fafbfb"/>
	<path d="M70.3,14.7c-1.3-1.6-2.6-3-4.1-4.4c-7.6-0.8-18.6-1.7-26.7-1.7s-19,0.9-26.7,1.7c-1.5,1.4-2.9,2.8-4.1,4.4
		c7.5-0.8,21-2.1,30.8-2.1S62.8,14,70.3,14.7z" fill="#fafbfb"/>
	<path d="M58,4.6C52.5,1.7,46.2,0,39.5,0S26.5,1.7,21,4.6c6.2-0.5,12.9-0.9,18.5-0.9S51.8,4.1,58,4.6z" fill="#fafbfb"/>
	<path d="M70.3,64.3c-7.5,0.8-21,2.1-30.8,2.1S16.2,65,8.7,64.3c1.3,1.6,2.6,3,4.1,4.4c7.6,0.8,18.6,1.7,26.7,1.7
		s19-0.9,26.7-1.7C67.6,67.3,69,65.8,70.3,64.3z" fill="#fafbfb"/>
	<path d="M21,74.4c5.5,2.9,11.8,4.6,18.5,4.6s13-1.7,18.5-4.6c-6.2,0.5-12.9,0.9-18.5,0.9S27.2,74.9,21,74.4z" fill="#fafbfb"/>
</svg>
