<svg class="icon icon--padlock" viewBox="0 0 37.1 54">
	<title>Padlock Icon</title>
	<path d="M32.9,21.7v-7.4C32.9,6.4,26.5,0,18.6,0C10.7,0,4.2,6.4,4.2,14.3v7.4C1.8,22,0,24,0,26.5v22.7
		C0,51.8,2.2,54,4.8,54h27.5c2.7,0,4.8-2.2,4.8-4.8V26.5C37.1,24,35.3,22,32.9,21.7z M8.7,14.3c0-5.4,4.4-9.8,9.8-9.8
		c5.4,0,9.8,4.4,9.8,9.8v7.3H8.7V14.3z M32.6,49.2c0,0.2-0.1,0.3-0.3,0.3H4.8c-0.2,0-0.3-0.1-0.3-0.3V26.5c0-0.2,0.1-0.3,0.3-0.3
		h27.5c0.2,0,0.3,0.1,0.3,0.3V49.2z" fill="#3F85AD"/>
	<path d="M18.7,31.1c-2.4,0-4.4,2-4.4,4.4c0,1.8,1.1,3.4,2.7,4.1v4.8c0,0.4,0.3,0.7,0.7,0.7h2.1c0.4,0,0.7-0.3,0.7-0.7
		v-4.8c1.6-0.7,2.7-2.2,2.7-4.1C23.2,33.1,21.2,31.1,18.7,31.1z" fill="#3F85AD"/>
</svg>
