<svg class="icon icon--small-link" xmlns="http://www.w3.org/2000/svg" viewBox="0 0 19.3 19.3">
	<title>Small Phone SVG Icon</title>
	<path d="M18.1,6.8L14.9,10l-1.1,1.1l-0.7,0.7c-0.2,0.2-0.5,0.4-0.8,0.6c-0.9,0.5-2,0.7-3,0.4c-0.3-0.1-0.7-0.2-1-0.4
		c-0.3-0.2-0.6-0.4-0.8-0.6c0,0,0,0,0,0l1.4-1.4c0.2,0.2,0.5,0.4,0.8,0.5c0.4,0.1,0.7,0.1,1.1,0c0.3-0.1,0.6-0.3,0.9-0.5l1-1l0.8-0.8
		l0.8-0.8l2.4-2.4c0.8-0.8,0.8-2,0-2.8c-0.8-0.8-2-0.8-2.8,0L11.5,5C10.8,4.6,10,4.4,9.3,4.4l3.2-3.2c1.6-1.6,4.1-1.6,5.7,0
		C19.7,2.7,19.7,5.3,18.1,6.8z M5.4,16.7c-0.8,0.8-2,0.8-2.8,0c-0.8-0.8-0.8-2,0-2.8L5,11.5l0.8-0.8L6.5,10l1-1
		c0.3-0.3,0.6-0.4,0.9-0.5c0.4-0.1,0.7-0.1,1.1,0c0.3,0.1,0.6,0.2,0.8,0.5l1.4-1.4c0,0,0,0,0,0c-0.2-0.2-0.5-0.4-0.8-0.6
		c-0.3-0.2-0.7-0.3-1-0.4c-1-0.3-2.1-0.1-3,0.4C6.6,7.1,6.4,7.3,6.1,7.5L5.4,8.2L4.4,9.3l-3.2,3.2c-1.6,1.6-1.6,4.1,0,5.7
		c1.6,1.6,4.1,1.6,5.7,0l3.2-3.2c-0.8,0-1.5-0.2-2.3-0.6L5.4,16.7z" fill="#545A5D"/>
</svg>
