<svg class="icon icon--small-news" xmlns="http://www.w3.org/2000/svg" viewBox="0 0 20.9 20.9">
	<path d="M20.4,17.9v-6.4h-4v-11h-16v17.4c0,0.9,0.3,1.6,0.8,2.1c0.6,0.5,1.3,0.6,1.6,0.6c0.1,0,0.1,0,0.1,0l15.1,0 c0.8,0,1.4-0.3,1.9-0.8C20.5,18.9,20.4,17.9,20.4,17.9z M15.5,12v0.5v7l-12.6,0c0,0-0.6,0-1-0.3c-0.3-0.3-0.5-0.7-0.5-1.3V1.5h14 V12z  M19.1,19c-0.2,0.3-0.6,0.4-1.1,0.5l-1.5,0v-7h3l0,5.4C19.4,17.9,19.5,18.6,19.1,19z" fill="#859096"/>
	<path d="M8.5,3.5h-5v6h5V3.5z M7.5,8.5h-3v-4h3V8.5z" fill="#859096"/>
	<rect x="10.5" y="8.5" width="3" height="1" fill="#859096"/>
	<rect x="10.5" y="5.5" width="3" height="1" fill="#859096"/>
	<rect x="10.5" y="14.5" width="3" height="1" fill="#859096"/>
	<rect x="10.5" y="16.5" width="3" height="1" fill="#859096"/>
	<rect x="3.5" y="16.5" width="4.9" height="1" fill="#859096"/>
	<rect x="3.5" y="14.5" width="4.9" height="1" fill="#859096"/>
	<rect x="10.5" y="3.5" width="3" height="1" fill="#859096"/>
	<rect x="3.5" y="11.5" width="9.9" height="1" fill="#859096"/>
</svg>
