<svg class="icon icon--small-truck" xmlns="http://www.w3.org/2000/svg" viewBox="0 0 32 26.55">
  <title>Small SVG Truck Icon</title>
  <path d="M31.71,11.2,27.62,7.11a1,1,0,0,0-.71-.29H22.45V1a1,1,0,0,0-1-1H1A1,1,0,0,0,0,1V18.73a1,1,0,0,0,1,1H3.45a4.41,4.41,0,1,0,8.1,2.41,4.33,4.33,0,0,0-.73-2.41H21.18a4.33,4.33,0,0,0-.73,2.41,4.41,4.41,0,1,0,8.1-2.41H31a1,1,0,0,0,1-1V11.91A1,1,0,0,0,31.71,11.2ZM2,2H20.45V17.73H2ZM9.55,22.14a2.41,2.41,0,1,1-2.41-2.41A2.42,2.42,0,0,1,9.55,22.14Zm17.72,0a2.41,2.41,0,1,1-2.41-2.41A2.42,2.42,0,0,1,27.27,22.14ZM30,17.73H22.45V8.82H26.5l3.5,3.5Z" fill="#859096"/>
</svg>
