<svg class="ignition-logo" xmlns="http://www.w3.org/2000/svg" viewBox="0 0 93.2 25.6">
  <title>Ignition UX SVG Logo</title>
  <path d="M90.7,4.6A5.47,5.47,0,0,0,93.1,0h-2a3.65,3.65,0,0,1-3.6,3.6A3.65,3.65,0,0,1,83.9,0h-2a5.72,5.72,0,0,0,2.4,4.6A5.92,5.92,0,0,0,82,9.2h2a3.6,3.6,0,0,1,7.2,0h2A5.81,5.81,0,0,0,90.7,4.6Z" fill="#818b91"/>
  <path d="M78.4,5.6A5.72,5.72,0,0,1,72.8,0h2a3.65,3.65,0,0,0,3.6,3.6A3.65,3.65,0,0,0,82,0h2A5.79,5.79,0,0,1,78.4,5.6Z" fill="#818b91"/>
  <path d="M2.6,5.7A1.26,1.26,0,0,1,1.3,7,1.26,1.26,0,0,1,0,5.7,1.32,1.32,0,0,1,1.3,4.4C2.1,4.3,2.6,4.9,2.6,5.7ZM.3,20.6V8.9H2.4V20.5H.3Z" fill="#818b91"/>
  <path d="M15.4,8.9c0,.8-.1,1.8-.1,3.2v6.8c0,2.7-.5,4.3-1.7,5.3a6,6,0,0,1-4.2,1.4,7.09,7.09,0,0,1-3.9-1L6.1,23a6.54,6.54,0,0,0,3.4.9c2.2,0,3.8-1.1,3.8-4.1V18.5h0a4,4,0,0,1-3.7,1.9c-2.9,0-5-2.5-5-5.7,0-3.9,2.6-6.2,5.2-6.2a3.93,3.93,0,0,1,3.6,2h0l.1-1.8h1.9Zm-2.2,4.6a3,3,0,0,0-3.1-3.2c-2,0-3.5,1.7-3.5,4.4,0,2.3,1.2,4.2,3.4,4.2a3,3,0,0,0,2.9-2.2,5.16,5.16,0,0,0,.2-1.1V13.5Z" fill="#818b91"/>
  <path d="M17.9,12.1c0-1.2,0-2.2-.1-3.2h1.9l.1,1.9h0a4.28,4.28,0,0,1,3.8-2.2c1.6,0,4.1,1,4.1,5v6.9H25.6V13.8c0-1.9-.7-3.4-2.7-3.4a2.91,2.91,0,0,0-2.8,2.2,3.08,3.08,0,0,0-.1,1v7H17.9Z" fill="#818b91"/>
  <path d="M32.6,5.7a1.3,1.3,0,0,1-2.6,0,1.32,1.32,0,0,1,1.3-1.3C32.1,4.3,32.6,4.9,32.6,5.7ZM30.3,20.6V8.9h2.1V20.5H30.3Z" fill="#818b91"/>
  <path d="M38.4,5.6V8.9h3v1.6h-3v6.3c0,1.4.4,2.3,1.6,2.3.6,0,1-.1,1.2-.1l.1,1.6a4.7,4.7,0,0,1-1.9.3,2.87,2.87,0,0,1-2.3-.9,4.31,4.31,0,0,1-.8-3V10.7H34.5V8.9h1.8V6.1Z" fill="#818b91"/>
  <path d="M46.2,5.7A1.26,1.26,0,0,1,44.9,7a1.3,1.3,0,1,1,0-2.6C45.7,4.3,46.2,4.9,46.2,5.7ZM43.9,20.6V8.9H46V20.5H43.9Z" fill="#818b91"/>
  <path d="M59.5,14.6c0,4.3-3,6.2-5.8,6.2-3.2,0-5.6-2.3-5.6-6,0-3.9,2.5-6.2,5.8-6.2S59.5,11.1,59.5,14.6Zm-9.2.2c0,2.5,1.5,4.5,3.5,4.5s3.5-1.9,3.5-4.5c0-2-1-4.5-3.5-4.5S50.3,12.6,50.3,14.8Z" fill="#818b91"/>
  <path d="M61.7,12.1c0-1.2,0-2.2-.1-3.2h1.9l.1,1.9h0a4.28,4.28,0,0,1,3.8-2.2c1.6,0,4.1,1,4.1,5v6.9H69.4V13.8c0-1.9-.7-3.4-2.7-3.4a2.91,2.91,0,0,0-2.8,2.2,3.08,3.08,0,0,0-.1,1v7H61.7Z" fill="#818b91"/>
</svg>
