<svg class="icon icon--small-tick" xmlns="http://www.w3.org/2000/svg" viewBox="0 0 30 30">
  <title>Small Tick SVG Icon</title>
  <path d="M29,0c.16.09.32.18.47.28a1.05,1.05,0,0,1,.44,1.46A5.73,5.73,0,0,1,29,2.88c-2.17,2.34-4.47,4.57-6.52,7A66.31,66.31,0,0,0,12.15,27.7c-.2.49-.38,1-.62,1.46a7.08,7.08,0,0,1-.63.84h-.57a7.12,7.12,0,0,1-.69-.87,54.13,54.13,0,0,0-6.55-9.79A30.4,30.4,0,0,0,.52,16.71a1.49,1.49,0,0,1,.7-2.59,5.29,5.29,0,0,1,2.38.19c1.9.72,3.75,1.59,5.6,2.44.45.22.69.22,1-.18A129.44,129.44,0,0,1,21.62,4.32c.71-.66,1.44-1.29,2.19-1.9A12.31,12.31,0,0,1,27.93,0Z" fill="#8cd600"/>
</svg>
