<svg class="icon icon--small-package" xmlns="http://www.w3.org/2000/svg" viewBox="0 0 32 34.29">
  <title>Small Package SVG Icon</title>
  <path d="M29.78,6.42l-12-6h0a4,4,0,0,0-3.56,0l-12,6A4,4,0,0,0,0,10V24.27a4,4,0,0,0,2.2,3.6l12,6a4,4,0,0,0,3.58,0l12-6A4,4,0,0,0,32,24.29V10A4,4,0,0,0,29.78,6.42ZM15.11,2.21A2,2,0,0,1,16,2a2,2,0,0,1,.89.21L28.76,8.14,23.5,10.77,10.74,4.39ZM16,14.52,3.24,8.14,8.51,5.51l12.75,6.38ZM3.1,26.08A2,2,0,0,1,2,24.28V10a1.81,1.81,0,0,1,0-.23l13,6.48V32ZM30,24.29a2,2,0,0,1-1.11,1.79L17,32V16.25L30,9.77A1.81,1.81,0,0,1,30,10Z" fill="#859096"/>
</svg>
